HIERARCHY
ROOT Model_Hips
{
	OFFSET 0.000000 96.915077 0.000000
	CHANNELS 6 Xposition Yposition Zposition Xrotation Yrotation Zrotation
	JOINT Model_Spine
	{
		OFFSET 0.000000 11.137703 -1.289900
		CHANNELS 3 Xrotation Yrotation Zrotation
		JOINT Model_Spine1
		{
			OFFSET 0.000000 12.993942 -1.504922
			CHANNELS 3 Xrotation Yrotation Zrotation
			JOINT Model_Spine2
			{
				OFFSET 0.000000 14.850220 -1.719911
				CHANNELS 3 Xrotation Yrotation Zrotation
				JOINT Model_Neck
				{
					OFFSET 0.000000 16.706543 -1.934903
					CHANNELS 3 Xrotation Yrotation Zrotation
					JOINT Model_Head
					{
						OFFSET 0.000000 10.471298 2.002100
						CHANNELS 3 Xrotation Yrotation Zrotation
						JOINT Model_HeadTop_End
						{
							OFFSET 0.000000 20.842606 3.985100
							CHANNELS 3 Xrotation Yrotation Zrotation
							End Site
							{
								OFFSET 0.000000 21.220154 0.000000
							}
						}
					}
				}
				JOINT Model_LeftShoulder
				{
					OFFSET 7.008500 14.768600 -1.919946
					CHANNELS 3 Xrotation Yrotation Zrotation
					JOINT Model_LeftArm
					{
						OFFSET 14.126271 -3.718048 0.029937
						CHANNELS 3 Xrotation Yrotation Zrotation
						JOINT Model_LeftForeArm
						{
							OFFSET 28.282801 0.000000 0.000000
							CHANNELS 3 Xrotation Yrotation Zrotation
							JOINT Model_LeftHand
							{
								OFFSET 26.204689 0.000000 0.000000
								CHANNELS 3 Xrotation Yrotation Zrotation
								End Site
								{
									OFFSET 26.204704 0.000000 0.000000
								}
							}
						}
					}
				}
				JOINT Model_RightShoulder
				{
					OFFSET -7.008500 14.768555 -1.949840
					CHANNELS 3 Xrotation Yrotation Zrotation
					JOINT Model_RightArm
					{
						OFFSET -14.126281 -3.718018 -0.029932
						CHANNELS 3 Xrotation Yrotation Zrotation
						JOINT Model_RightForeArm
						{
							OFFSET -28.283798 0.000000 -0.000001
							CHANNELS 3 Xrotation Yrotation Zrotation
							JOINT Model_RightHand
							{
								OFFSET -26.204193 0.000000 -0.000001
								CHANNELS 3 Xrotation Yrotation Zrotation
								End Site
								{
									OFFSET -26.204208 0.000000 -0.000001
								}
							}
						}
					}
				}
			}
		}
	}
	JOINT Model_LeftUpLeg
	{
		OFFSET 8.327700 -6.193199 -0.402800
		CHANNELS 3 Xrotation Yrotation Zrotation
		JOINT Model_LeftLeg
		{
			OFFSET 0.735802 -42.108742 -0.610721
			CHANNELS 3 Xrotation Yrotation Zrotation
			JOINT Model_LeftFoot
			{
				OFFSET -0.735806 -36.833748 -0.172876
				CHANNELS 3 Xrotation Yrotation Zrotation
				JOINT Model_LeftToeBase
				{
					OFFSET -0.565857 -11.977769 16.297714
					CHANNELS 3 Xrotation Yrotation Zrotation
					JOINT Model_LeftToe_End
					{
						OFFSET -0.111712 -0.312793 7.857784
						CHANNELS 3 Xrotation Yrotation Zrotation
						End Site
						{
							OFFSET -0.111712 -0.312793 7.857784
						}
					}
				}
			}
		}
	}
	JOINT Model_RightUpLeg
	{
		OFFSET -8.327700 -6.193199 -0.516500
		CHANNELS 3 Xrotation Yrotation Zrotation
		JOINT Model_RightLeg
		{
			OFFSET -0.735785 -42.108738 -0.434061
			CHANNELS 3 Xrotation Yrotation Zrotation
			JOINT Model_RightFoot
			{
				OFFSET 0.735776 -36.833748 -0.021630
				CHANNELS 3 Xrotation Yrotation Zrotation
				JOINT Model_RightToeBase
				{
					OFFSET 0.565817 -11.977745 15.903093
					CHANNELS 3 Xrotation Yrotation Zrotation
					JOINT Model_RightToe_End
					{
						OFFSET 0.111702 -0.312791 7.811342
						CHANNELS 3 Xrotation Yrotation Zrotation
						End Site
						{
							OFFSET 0.111702 -0.312791 7.811342
						}
					}
				}
			}
		}
	}
}
MOTION
Frames: 7
Frame Time: 0.016667
10.467956 64.063011 61.182140 11.139175 -66.558547 19.794259 8.248990 1.182539 -4.550242 16.576237 2.072957 -9.034239 16.576242 2.072928 -9.034222 -1.643861 -5.319912 0.557895 -1.643843 -5.319920 0.557892 -0.000002 -0.000001 -0.000000 1.795763 2.886909 -8.956481 -25.309527 -12.011789 -15.366143 5.296705 -59.676708 -2.238794 -0.000001 0.000000 -0.000000 2.721870 0.550753 20.130617 -19.467065 -10.735326 25.909535 -9.925228 65.561306 13.682010 -0.000001 -0.000000 0.000001 -63.896966 -8.948974 21.638984 83.021400 -43.253812 9.794223 -23.813180 9.856210 -13.745801 -7.830582 2.667711 -4.921812 0.000000 -0.000001 -0.000000 -56.908829 14.060021 -45.141181 111.777726 19.374457 -0.155541 -41.851124 7.232553 -15.517012 -14.126074 -2.704910 17.735408 0.000000 -0.000001 0.000001 
11.297494 64.567566 59.566010 18.998231 -71.610613 27.064790 8.179722 1.121664 -4.438721 16.428630 1.884149 -8.808812 16.428627 1.884159 -8.808828 -1.491870 -5.506904 1.031519 -1.491857 -5.506911 1.031514 -0.000001 -0.000002 0.000002 1.959218 2.767994 -9.038410 -26.993304 -16.050656 -12.901618 5.867340 -53.771566 -2.496131 0.000001 0.000000 -0.000001 3.147825 0.036795 21.830051 -16.984652 -13.904087 23.838566 -12.154500 62.941976 14.478174 -0.000003 0.000002 -0.000003 -60.889326 -9.060564 26.404337 78.052417 -40.043302 8.221219 -22.959671 9.544902 -17.741736 -7.969210 2.856912 -4.884324 0.000000 0.000000 -0.000000 -63.140181 12.758676 -44.332337 109.890408 25.603039 0.970038 -36.498215 6.388854 -14.953183 -8.587883 -0.546948 7.767257 0.000001 0.000001 0.000000 
11.960526 65.160866 57.892361 32.504238 -76.545322 40.322162 7.925038 1.028304 -4.373578 15.908573 1.638740 -8.657506 15.908581 1.638714 -8.657493 -1.379596 -5.625293 1.654772 -1.379624 -5.625301 1.654780 -0.000002 -0.000002 0.000001 2.147726 2.667693 -9.521678 -28.666919 -18.688513 -12.310922 6.152572 -47.025542 -3.192221 0.000001 0.000001 -0.000003 3.489556 -0.174554 23.468544 -14.761740 -16.503337 22.804832 -11.782495 58.876606 13.335417 0.000002 -0.000000 0.000002 -56.946941 -8.078511 31.099634 73.060956 -36.605279 7.076916 -22.137121 9.437461 -22.050496 -8.226454 3.014219 -4.856005 0.000000 0.000000 0.000000 -69.173526 10.903633 -44.022376 108.182396 27.494670 1.695979 -29.529032 4.920814 -12.983398 -8.419212 -0.312547 4.266640 -0.000000 0.000000 0.000000 
12.213936 65.858078 56.235405 60.631862 -80.162850 68.500507 7.499626 0.919274 -4.337640 15.046693 1.347566 -8.580923 15.046685 1.347592 -8.580943 -1.362237 -5.633418 2.340115 -1.362284 -5.633409 2.340115 0.000001 0.000000 0.000000 2.361729 2.796828 -10.595750 -29.502435 -19.320887 -12.807929 5.775837 -42.940740 -3.493811 0.000003 0.000002 0.000001 3.699949 -0.112163 24.745301 -12.693377 -18.489517 22.772792 -10.504120 54.721700 12.028337 -0.000001 -0.000001 -0.000002 -51.988897 -6.430206 35.528359 67.773378 -32.569713 5.771539 -21.230856 9.428555 -26.565688 -8.478260 3.160758 -4.843611 0.000000 -0.000001 0.000000 -74.905073 8.754282 -43.410715 107.817056 24.313966 0.934796 -25.448554 3.753306 -10.510217 -6.323128 -0.063337 2.498985 -0.000001 -0.000000 0.000000 
12.350887 66.668320 54.686722 99.913319 -79.845430 107.929147 6.983311 0.831924 -4.228838 14.004012 1.093516 -8.363974 14.004004 1.093530 -8.363986 -1.440331 -5.545414 2.973097 -1.440334 -5.545411 2.973101 -0.000002 0.000000 0.000000 2.525996 3.028409 -11.804794 -29.427423 -18.094993 -14.119961 5.500707 -43.669552 -3.625723 -0.000001 -0.000001 0.000003 3.752416 -0.023763 25.221959 -10.349240 -20.430563 23.516113 -9.306095 52.458209 11.415665 -0.000001 -0.000001 -0.000003 -46.437633 -4.370522 39.083582 62.276804 -27.879849 4.493351 -20.002064 9.383620 -31.141182 -8.618906 3.327875 -4.859315 -0.000000 0.000000 -0.000000 -79.957097 6.915233 -42.152652 107.080571 19.044388 -0.627758 -22.542560 2.790029 -8.310619 -4.074738 0.074552 0.836229 -0.000000 -0.000002 0.000000 
12.273048 67.589256 53.253426 125.530244 -75.929826 133.903919 6.470846 0.785318 -4.039728 12.970825 0.912791 -7.965093 12.970828 0.912792 -7.965092 -1.532857 -5.365243 3.475222 -1.532852 -5.365256 3.475230 0.000002 0.000001 0.000001 2.531079 3.136985 -12.431669 -28.290375 -15.542905 -16.390576 5.855541 -49.031794 -3.802485 0.000002 0.000002 0.000001 3.627931 -0.102794 24.614714 -7.229911 -22.632921 25.125698 -8.286809 53.142820 11.623826 0.000000 0.000000 -0.000001 -40.425451 -1.823990 41.485633 56.465912 -23.146029 3.424026 -18.451358 9.204379 -35.341270 -8.565125 3.503744 -4.894418 0.000000 0.000000 -0.000000 -83.488851 5.940368 -40.660369 104.623998 14.856158 -1.734946 -19.426661 1.779475 -6.402009 -3.707758 0.417228 0.919923 -0.000001 -0.000001 -0.000001 
11.853094 68.599205 51.882507 137.472365 -70.831493 146.556680 6.011189 0.765609 -3.852206 12.044334 0.768761 -7.533741 12.044322 0.768777 -7.533747 -1.533484 -5.096185 3.834247 -1.533485 -5.096200 3.834249 -0.000000 0.000000 -0.000000 2.315188 3.020294 -12.073961 -25.909001 -12.234614 -19.826950 6.667920 -56.938687 -3.739546 0.000002 0.000002 -0.000002 3.285543 -0.349201 22.831968 -3.054112 -24.698717 28.093183 -7.145496 56.123572 12.487351 -0.000000 -0.000000 -0.000001 -33.987332 1.195268 42.711837 50.026293 -18.846760 2.304303 -16.383155 8.764578 -38.778863 -8.973166 3.720756 -3.935739 0.000000 0.000000 -0.000000 -85.574641 5.690578 -39.190212 100.633152 12.057527 -1.989305 -16.017325 0.627489 -4.367550 -3.263761 1.209688 0.782276 -0.000001 -0.000002 0.000001 
